<mxfile host="app.diagrams.net" modified="2024-07-03T09:52:16.380Z" agent="Mozilla/5.0 (Windows NT 10.0; Win64; x64) AppleWebKit/537.36 (KHTML, like Gecko) Chrome/126.0.0.0 Safari/537.36" etag="ZPlC5d-h5kYCRF7TaBxe" version="24.6.4" type="github">
  <diagram name="Page-1" id="lgoqSeOtc926DudFBYrM">
    <mxGraphModel dx="2074" dy="1140" grid="1" gridSize="10" guides="1" tooltips="1" connect="1" arrows="1" fold="1" page="1" pageScale="1" pageWidth="850" pageHeight="1100" math="0" shadow="0">
      <root>
        <mxCell id="0" />
        <mxCell id="1" parent="0" />
        <mxCell id="BH3GAmVgXuubJffG_VA9-1" value="&lt;b&gt;&lt;font style=&quot;font-size: 18px;&quot;&gt;0&lt;/font&gt;&lt;/b&gt;" style="rounded=0;whiteSpace=wrap;html=1;" vertex="1" parent="1">
          <mxGeometry x="10" y="80" width="40" height="20" as="geometry" />
        </mxCell>
        <mxCell id="BH3GAmVgXuubJffG_VA9-17" value="&lt;b&gt;&lt;font style=&quot;font-size: 18px;&quot;&gt;2&lt;/font&gt;&lt;/b&gt;" style="rounded=0;whiteSpace=wrap;html=1;" vertex="1" parent="1">
          <mxGeometry x="10" y="120" width="40" height="20" as="geometry" />
        </mxCell>
        <mxCell id="BH3GAmVgXuubJffG_VA9-18" value="&lt;b&gt;&lt;font style=&quot;font-size: 18px;&quot;&gt;4&lt;/font&gt;&lt;/b&gt;" style="rounded=0;whiteSpace=wrap;html=1;" vertex="1" parent="1">
          <mxGeometry x="10" y="160" width="40" height="20" as="geometry" />
        </mxCell>
        <mxCell id="BH3GAmVgXuubJffG_VA9-19" value="&lt;b&gt;&lt;font style=&quot;font-size: 18px;&quot;&gt;6&lt;/font&gt;&lt;/b&gt;" style="rounded=0;whiteSpace=wrap;html=1;" vertex="1" parent="1">
          <mxGeometry x="10" y="200" width="40" height="20" as="geometry" />
        </mxCell>
        <mxCell id="BH3GAmVgXuubJffG_VA9-20" value="&lt;b&gt;&lt;font style=&quot;font-size: 18px;&quot;&gt;0&lt;/font&gt;&lt;/b&gt;" style="rounded=0;whiteSpace=wrap;html=1;" vertex="1" parent="1">
          <mxGeometry x="90" y="80" width="40" height="20" as="geometry" />
        </mxCell>
        <mxCell id="BH3GAmVgXuubJffG_VA9-21" value="&lt;b&gt;&lt;font style=&quot;font-size: 18px;&quot;&gt;2&lt;/font&gt;&lt;/b&gt;" style="rounded=0;whiteSpace=wrap;html=1;" vertex="1" parent="1">
          <mxGeometry x="90" y="120" width="40" height="20" as="geometry" />
        </mxCell>
        <mxCell id="BH3GAmVgXuubJffG_VA9-22" value="&lt;b&gt;&lt;font style=&quot;font-size: 18px;&quot;&gt;4&lt;/font&gt;&lt;/b&gt;" style="rounded=0;whiteSpace=wrap;html=1;" vertex="1" parent="1">
          <mxGeometry x="90" y="160" width="40" height="20" as="geometry" />
        </mxCell>
        <mxCell id="BH3GAmVgXuubJffG_VA9-23" value="&lt;b&gt;&lt;font style=&quot;font-size: 18px;&quot;&gt;6&lt;/font&gt;&lt;/b&gt;" style="rounded=0;whiteSpace=wrap;html=1;" vertex="1" parent="1">
          <mxGeometry x="90" y="200" width="40" height="20" as="geometry" />
        </mxCell>
        <mxCell id="BH3GAmVgXuubJffG_VA9-24" value="&lt;b&gt;&lt;font style=&quot;font-size: 18px;&quot;&gt;1&lt;/font&gt;&lt;/b&gt;" style="rounded=0;whiteSpace=wrap;html=1;" vertex="1" parent="1">
          <mxGeometry x="170" y="80" width="40" height="20" as="geometry" />
        </mxCell>
        <mxCell id="BH3GAmVgXuubJffG_VA9-25" value="&lt;b&gt;&lt;font style=&quot;font-size: 18px;&quot;&gt;3&lt;/font&gt;&lt;/b&gt;" style="rounded=0;whiteSpace=wrap;html=1;" vertex="1" parent="1">
          <mxGeometry x="170" y="120" width="40" height="20" as="geometry" />
        </mxCell>
        <mxCell id="BH3GAmVgXuubJffG_VA9-26" value="&lt;b&gt;&lt;font style=&quot;font-size: 18px;&quot;&gt;5&lt;/font&gt;&lt;/b&gt;" style="rounded=0;whiteSpace=wrap;html=1;" vertex="1" parent="1">
          <mxGeometry x="170" y="160" width="40" height="20" as="geometry" />
        </mxCell>
        <mxCell id="BH3GAmVgXuubJffG_VA9-27" value="&lt;b&gt;&lt;font style=&quot;font-size: 18px;&quot;&gt;7&lt;/font&gt;&lt;/b&gt;" style="rounded=0;whiteSpace=wrap;html=1;" vertex="1" parent="1">
          <mxGeometry x="170" y="200" width="40" height="20" as="geometry" />
        </mxCell>
        <mxCell id="BH3GAmVgXuubJffG_VA9-28" value="&lt;span style=&quot;font-size: 18px;&quot;&gt;&lt;b&gt;1&lt;/b&gt;&lt;/span&gt;" style="rounded=0;whiteSpace=wrap;html=1;" vertex="1" parent="1">
          <mxGeometry x="250" y="80" width="40" height="20" as="geometry" />
        </mxCell>
        <mxCell id="BH3GAmVgXuubJffG_VA9-29" value="&lt;b&gt;&lt;font style=&quot;font-size: 18px;&quot;&gt;3&lt;/font&gt;&lt;/b&gt;" style="rounded=0;whiteSpace=wrap;html=1;" vertex="1" parent="1">
          <mxGeometry x="250" y="120" width="40" height="20" as="geometry" />
        </mxCell>
        <mxCell id="BH3GAmVgXuubJffG_VA9-30" value="&lt;b&gt;&lt;font style=&quot;font-size: 18px;&quot;&gt;5&lt;/font&gt;&lt;/b&gt;" style="rounded=0;whiteSpace=wrap;html=1;" vertex="1" parent="1">
          <mxGeometry x="250" y="160" width="40" height="20" as="geometry" />
        </mxCell>
        <mxCell id="BH3GAmVgXuubJffG_VA9-31" value="&lt;b&gt;&lt;font style=&quot;font-size: 18px;&quot;&gt;7&lt;/font&gt;&lt;/b&gt;" style="rounded=0;whiteSpace=wrap;html=1;" vertex="1" parent="1">
          <mxGeometry x="250" y="200" width="40" height="20" as="geometry" />
        </mxCell>
        <mxCell id="BH3GAmVgXuubJffG_VA9-36" value="&lt;b&gt;&lt;font style=&quot;font-size: 18px;&quot;&gt;0&lt;/font&gt;&lt;/b&gt;" style="rounded=0;whiteSpace=wrap;html=1;" vertex="1" parent="1">
          <mxGeometry x="370" y="80" width="40" height="20" as="geometry" />
        </mxCell>
        <mxCell id="BH3GAmVgXuubJffG_VA9-37" value="&lt;b&gt;&lt;font style=&quot;font-size: 18px;&quot;&gt;1&lt;/font&gt;&lt;/b&gt;" style="rounded=0;whiteSpace=wrap;html=1;" vertex="1" parent="1">
          <mxGeometry x="450" y="80" width="40" height="20" as="geometry" />
        </mxCell>
        <mxCell id="BH3GAmVgXuubJffG_VA9-38" value="&lt;b&gt;&lt;font style=&quot;font-size: 18px;&quot;&gt;2&lt;/font&gt;&lt;/b&gt;" style="rounded=0;whiteSpace=wrap;html=1;" vertex="1" parent="1">
          <mxGeometry x="530" y="80" width="40" height="20" as="geometry" />
        </mxCell>
        <mxCell id="BH3GAmVgXuubJffG_VA9-39" value="&lt;b&gt;&lt;font style=&quot;font-size: 18px;&quot;&gt;3&lt;/font&gt;&lt;/b&gt;" style="rounded=0;whiteSpace=wrap;html=1;" vertex="1" parent="1">
          <mxGeometry x="610" y="80" width="40" height="20" as="geometry" />
        </mxCell>
        <mxCell id="BH3GAmVgXuubJffG_VA9-40" value="&lt;b&gt;&lt;font style=&quot;font-size: 18px;&quot;&gt;4&lt;/font&gt;&lt;/b&gt;" style="rounded=0;whiteSpace=wrap;html=1;" vertex="1" parent="1">
          <mxGeometry x="370" y="120" width="40" height="20" as="geometry" />
        </mxCell>
        <mxCell id="BH3GAmVgXuubJffG_VA9-41" value="&lt;b&gt;&lt;font style=&quot;font-size: 18px;&quot;&gt;5&lt;/font&gt;&lt;/b&gt;" style="rounded=0;whiteSpace=wrap;html=1;" vertex="1" parent="1">
          <mxGeometry x="450" y="120" width="40" height="20" as="geometry" />
        </mxCell>
        <mxCell id="BH3GAmVgXuubJffG_VA9-42" value="&lt;b&gt;&lt;font style=&quot;font-size: 18px;&quot;&gt;6&lt;/font&gt;&lt;/b&gt;" style="rounded=0;whiteSpace=wrap;html=1;" vertex="1" parent="1">
          <mxGeometry x="530" y="120" width="40" height="20" as="geometry" />
        </mxCell>
        <mxCell id="BH3GAmVgXuubJffG_VA9-43" value="&lt;b&gt;&lt;font style=&quot;font-size: 18px;&quot;&gt;7&lt;/font&gt;&lt;/b&gt;" style="rounded=0;whiteSpace=wrap;html=1;" vertex="1" parent="1">
          <mxGeometry x="610" y="120" width="40" height="20" as="geometry" />
        </mxCell>
        <mxCell id="BH3GAmVgXuubJffG_VA9-44" value="&lt;b&gt;&lt;font style=&quot;font-size: 18px;&quot;&gt;0&lt;/font&gt;&lt;/b&gt;" style="rounded=0;whiteSpace=wrap;html=1;" vertex="1" parent="1">
          <mxGeometry x="450" y="220" width="40" height="20" as="geometry" />
        </mxCell>
        <mxCell id="BH3GAmVgXuubJffG_VA9-45" value="&lt;b&gt;&lt;font style=&quot;font-size: 18px;&quot;&gt;1&lt;/font&gt;&lt;/b&gt;" style="rounded=0;whiteSpace=wrap;html=1;" vertex="1" parent="1">
          <mxGeometry x="370" y="220" width="40" height="20" as="geometry" />
        </mxCell>
        <mxCell id="BH3GAmVgXuubJffG_VA9-46" value="&lt;b&gt;&lt;font style=&quot;font-size: 18px;&quot;&gt;2&lt;/font&gt;&lt;/b&gt;" style="rounded=0;whiteSpace=wrap;html=1;" vertex="1" parent="1">
          <mxGeometry x="610" y="220" width="40" height="20" as="geometry" />
        </mxCell>
        <mxCell id="BH3GAmVgXuubJffG_VA9-47" value="&lt;b&gt;&lt;font style=&quot;font-size: 18px;&quot;&gt;3&lt;/font&gt;&lt;/b&gt;" style="rounded=0;whiteSpace=wrap;html=1;" vertex="1" parent="1">
          <mxGeometry x="530" y="220" width="40" height="20" as="geometry" />
        </mxCell>
        <mxCell id="BH3GAmVgXuubJffG_VA9-48" value="&lt;b&gt;&lt;font style=&quot;font-size: 18px;&quot;&gt;4&lt;/font&gt;&lt;/b&gt;" style="rounded=0;whiteSpace=wrap;html=1;" vertex="1" parent="1">
          <mxGeometry x="450" y="260" width="40" height="20" as="geometry" />
        </mxCell>
        <mxCell id="BH3GAmVgXuubJffG_VA9-49" value="&lt;b&gt;&lt;font style=&quot;font-size: 18px;&quot;&gt;5&lt;/font&gt;&lt;/b&gt;" style="rounded=0;whiteSpace=wrap;html=1;" vertex="1" parent="1">
          <mxGeometry x="370" y="260" width="40" height="20" as="geometry" />
        </mxCell>
        <mxCell id="BH3GAmVgXuubJffG_VA9-50" value="&lt;b&gt;&lt;font style=&quot;font-size: 18px;&quot;&gt;6&lt;/font&gt;&lt;/b&gt;" style="rounded=0;whiteSpace=wrap;html=1;" vertex="1" parent="1">
          <mxGeometry x="610" y="260" width="40" height="20" as="geometry" />
        </mxCell>
        <mxCell id="BH3GAmVgXuubJffG_VA9-51" value="&lt;b&gt;&lt;font style=&quot;font-size: 18px;&quot;&gt;7&lt;/font&gt;&lt;/b&gt;" style="rounded=0;whiteSpace=wrap;html=1;" vertex="1" parent="1">
          <mxGeometry x="530" y="260" width="40" height="20" as="geometry" />
        </mxCell>
        <mxCell id="BH3GAmVgXuubJffG_VA9-52" value="..." style="rounded=0;whiteSpace=wrap;html=1;fillColor=none;strokeColor=none;fontStyle=1;fontSize=20;rotation=90;" vertex="1" parent="1">
          <mxGeometry x="20" y="250" width="40" height="20" as="geometry" />
        </mxCell>
        <mxCell id="BH3GAmVgXuubJffG_VA9-53" value="..." style="rounded=0;whiteSpace=wrap;html=1;fillColor=none;strokeColor=none;fontStyle=1;fontSize=20;rotation=90;" vertex="1" parent="1">
          <mxGeometry x="100" y="250" width="40" height="20" as="geometry" />
        </mxCell>
        <mxCell id="BH3GAmVgXuubJffG_VA9-54" value="..." style="rounded=0;whiteSpace=wrap;html=1;fillColor=none;strokeColor=none;fontStyle=1;fontSize=20;rotation=90;" vertex="1" parent="1">
          <mxGeometry x="180" y="250" width="40" height="20" as="geometry" />
        </mxCell>
        <mxCell id="BH3GAmVgXuubJffG_VA9-55" value="..." style="rounded=0;whiteSpace=wrap;html=1;fillColor=none;strokeColor=none;fontStyle=1;fontSize=20;rotation=90;" vertex="1" parent="1">
          <mxGeometry x="260" y="250" width="40" height="20" as="geometry" />
        </mxCell>
        <mxCell id="BH3GAmVgXuubJffG_VA9-57" value="..." style="rounded=0;whiteSpace=wrap;html=1;fillColor=none;strokeColor=none;fontStyle=1;fontSize=20;rotation=90;" vertex="1" parent="1">
          <mxGeometry x="380" y="170" width="40" height="20" as="geometry" />
        </mxCell>
        <mxCell id="BH3GAmVgXuubJffG_VA9-58" value="..." style="rounded=0;whiteSpace=wrap;html=1;fillColor=none;strokeColor=none;fontStyle=1;fontSize=20;rotation=90;" vertex="1" parent="1">
          <mxGeometry x="460" y="170" width="40" height="20" as="geometry" />
        </mxCell>
        <mxCell id="BH3GAmVgXuubJffG_VA9-59" value="..." style="rounded=0;whiteSpace=wrap;html=1;fillColor=none;strokeColor=none;fontStyle=1;fontSize=20;rotation=90;" vertex="1" parent="1">
          <mxGeometry x="540" y="170" width="40" height="20" as="geometry" />
        </mxCell>
        <mxCell id="BH3GAmVgXuubJffG_VA9-60" value="..." style="rounded=0;whiteSpace=wrap;html=1;fillColor=none;strokeColor=none;fontStyle=1;fontSize=20;rotation=90;" vertex="1" parent="1">
          <mxGeometry x="620" y="170" width="40" height="20" as="geometry" />
        </mxCell>
        <mxCell id="BH3GAmVgXuubJffG_VA9-61" value="" style="rounded=1;whiteSpace=wrap;html=1;fillColor=none;" vertex="1" parent="1">
          <mxGeometry y="60" width="60" height="240" as="geometry" />
        </mxCell>
        <mxCell id="BH3GAmVgXuubJffG_VA9-62" value="" style="rounded=1;whiteSpace=wrap;html=1;fillColor=none;" vertex="1" parent="1">
          <mxGeometry x="80" y="60" width="60" height="240" as="geometry" />
        </mxCell>
        <mxCell id="BH3GAmVgXuubJffG_VA9-63" value="" style="rounded=1;whiteSpace=wrap;html=1;fillColor=none;" vertex="1" parent="1">
          <mxGeometry x="160" y="60" width="60" height="240" as="geometry" />
        </mxCell>
        <mxCell id="BH3GAmVgXuubJffG_VA9-64" value="" style="rounded=1;whiteSpace=wrap;html=1;fillColor=none;" vertex="1" parent="1">
          <mxGeometry x="240" y="60" width="60" height="240" as="geometry" />
        </mxCell>
        <mxCell id="BH3GAmVgXuubJffG_VA9-65" value="" style="rounded=1;whiteSpace=wrap;html=1;fillColor=none;" vertex="1" parent="1">
          <mxGeometry x="360" y="60" width="60" height="240" as="geometry" />
        </mxCell>
        <mxCell id="BH3GAmVgXuubJffG_VA9-66" value="" style="rounded=1;whiteSpace=wrap;html=1;fillColor=none;" vertex="1" parent="1">
          <mxGeometry x="440" y="60" width="60" height="240" as="geometry" />
        </mxCell>
        <mxCell id="BH3GAmVgXuubJffG_VA9-67" value="" style="rounded=1;whiteSpace=wrap;html=1;fillColor=none;" vertex="1" parent="1">
          <mxGeometry x="520" y="60" width="60" height="240" as="geometry" />
        </mxCell>
        <mxCell id="BH3GAmVgXuubJffG_VA9-68" value="" style="rounded=1;whiteSpace=wrap;html=1;fillColor=none;" vertex="1" parent="1">
          <mxGeometry x="600" y="60" width="60" height="240" as="geometry" />
        </mxCell>
        <mxCell id="BH3GAmVgXuubJffG_VA9-69" value="RAID-10 near layout" style="rounded=0;whiteSpace=wrap;html=1;fillColor=none;strokeColor=none;fontSize=18;" vertex="1" parent="1">
          <mxGeometry x="70" width="180" height="60" as="geometry" />
        </mxCell>
        <mxCell id="BH3GAmVgXuubJffG_VA9-70" value="RAID-10 far layout" style="rounded=0;whiteSpace=wrap;html=1;fillColor=none;strokeColor=none;fontSize=18;" vertex="1" parent="1">
          <mxGeometry x="420" width="180" height="60" as="geometry" />
        </mxCell>
      </root>
    </mxGraphModel>
  </diagram>
</mxfile>
